<?xml version="1.0" encoding="UTF-8" standalone="no"?><!-- Generator: Gravit.io --><svg xmlns="http://www.w3.org/2000/svg" xmlns:xlink="http://www.w3.org/1999/xlink" style="isolation:isolate" viewBox="788.865 222.004 277.269 274.353" width="277.269pt" height="274.353pt"><g><path d=" M 921.996 249.094 L 1040.462 291.958 L 1040.462 404.539 L 946.457 467.551 L 814.538 402.711 L 814.538 291.516 L 921.996 249.094 Z  M 921.677 227.138 L 794 277.55 L 794 415.507 L 948.038 491.222 L 1061 415.507 L 1061 277.55 L 921.677 227.138 Z " fill="rgb(255,68,0)" vector-effect="non-scaling-stroke" stroke-width="10.269" stroke="rgb(255,68,0)" stroke-linejoin="miter" stroke-linecap="butt" stroke-miterlimit="4"/><mask id="_mask_Ax4w7mOCNaw9HbBvT4z75ji1WoanrUdy" x="-200%" y="-200%" width="400%" height="400%"><rect x="-200%" y="-200%" width="400%" height="400%" style="fill:white;"/><line x1="804.968" y1="281.812" x2="954.292" y2="340.038" fill="black" stroke="none"/></mask><line x1="804.968" y1="281.812" x2="954.292" y2="340.038" mask="url(#_mask_Ax4w7mOCNaw9HbBvT4z75ji1WoanrUdy)" vector-effect="non-scaling-stroke" stroke-width="20.538" stroke="rgb(255,68,0)" stroke-linejoin="round" stroke-linecap="round" stroke-miterlimit="10"/><path d=" M 948.038 337.728 L 948.038 491.211 L 1061 415.496 L 1061 277.95 L 948.038 337.728 Z " fill="rgb(255,68,0)"/><path d=" M 1013.33 306.417 L 883.312 255.974 L 856.427 267.568 L 989.331 319.13 L 1013.33 306.417 Z " fill="rgb(255,68,0)"/><path d=" M 896.692 368.556 L 896.692 403.153 L 906.962 407.065 L 906.962 368.556 L 896.692 368.556 Z " fill="rgb(255,68,0)"/><path d=" M 916.995 378.887 L 886.32 368.751 L 901.806 348.777 L 916.995 378.887 Z " fill="rgb(255,68,0)"/><path d=" M 855.615 352.947 L 855.615 385.5 L 865.885 389.413 L 865.885 352.947 L 855.615 352.947 Z " fill="rgb(255,68,0)"/><path d=" M 876.205 364.14 L 845.531 354.015 L 860.729 334.575 L 876.205 364.14 Z " fill="rgb(255,68,0)"/><path d=" M 845.346 389.639 L 845.346 402.331 L 917.231 436.261 L 917.231 423.558 L 845.346 389.639 Z " fill="rgb(255,68,0)"/></g></svg>