<?xml version="1.0" encoding="UTF-8" standalone="no"?><!-- Generator: Gravit.io --><svg xmlns="http://www.w3.org/2000/svg" xmlns:xlink="http://www.w3.org/1999/xlink" style="isolation:isolate" viewBox="472.11 236.36 245.64 245.64" width="245.64pt" height="245.64pt"><g><path d=" M 637.65 257.72 L 621.63 257.72 C 618.681 257.72 616.29 260.111 616.29 263.06 L 616.29 311.12 C 616.29 314.069 618.681 316.46 621.63 316.46 L 637.65 316.46 C 640.599 316.46 642.99 314.069 642.99 311.12 L 642.99 263.06 C 642.99 260.111 640.599 257.72 637.65 257.72 Z " fill="rgb(255,68,0)"/><path d=" M 716.185 285.985 L 668.125 237.925 C 667.125 236.921 665.767 236.358 664.35 236.36 L 488.13 236.36 C 479.298 236.36 472.11 243.548 472.11 252.38 L 472.11 465.98 C 472.11 474.812 479.298 482 488.13 482 L 701.73 482 C 710.562 482 717.75 474.812 717.75 465.98 L 717.75 289.76 C 717.752 288.343 717.189 286.984 716.185 285.985 Z  M 504.15 455.3 L 493.47 455.3 L 493.47 444.62 L 504.15 444.62 L 504.15 455.3 Z  M 514.83 257.72 C 514.83 251.83 519.62 247.04 525.51 247.04 L 648.33 247.04 C 654.22 247.04 659.01 251.83 659.01 257.72 L 659.01 316.46 C 659.01 322.35 654.22 327.14 648.33 327.14 L 525.51 327.14 C 519.62 327.14 514.83 322.35 514.83 316.46 L 514.83 257.72 Z  M 674.896 471.32 L 514.963 471.32 L 514.963 379.472 C 514.972 371.295 521.599 364.668 529.777 364.659 L 660.073 364.659 C 668.25 364.668 674.877 371.295 674.886 379.472 L 674.886 471.32 L 674.896 471.32 Z  M 696.39 455.3 L 685.71 455.3 L 685.71 444.62 L 696.39 444.62 L 696.39 455.3 Z " fill="rgb(255,68,0)"/></g></svg>