<?xml version="1.0" encoding="UTF-8" standalone="no"?><!-- Generator: Gravit.io --><svg xmlns="http://www.w3.org/2000/svg" xmlns:xlink="http://www.w3.org/1999/xlink" style="isolation:isolate" viewBox="54.62 136 418.45 88.624" width="418.45pt" height="88.624pt"><g><g><g><path d=" M 227.434 196.567 L 226.047 204.224 L 217.722 204.224 L 215.667 216.145 L 205.903 216.145 L 211.556 184.029 L 231.597 184.029 L 228.873 192.251 L 219.829 192.251 L 219.11 196.567 L 227.434 196.567 L 227.434 196.567 Z  M 204.773 213.679 L 204.362 215.991 L 182.574 213.679 L 204.773 213.679 L 204.773 213.679 Z  M 206.52 203.761 L 206.109 206.074 L 184.321 203.761 L 206.52 203.761 L 206.52 203.761 Z  M 207.394 198.828 L 206.982 201.14 L 185.194 198.828 L 207.394 198.828 L 207.394 198.828 Z  M 208.267 193.895 L 207.856 196.207 L 186.068 193.895 L 208.267 193.895 L 208.267 193.895 Z  M 209.089 188.962 L 208.73 191.274 L 186.942 188.962 L 209.089 188.962 L 209.089 188.962 Z  M 205.646 208.694 L 205.235 211.007 L 183.447 208.694 L 205.646 208.694 L 205.646 208.694 Z  M 209.963 184.029 L 209.552 186.341 L 187.815 184.029 L 209.963 184.029 L 209.963 184.029 Z  M 248.709 211.058 L 246.704 216.145 L 236.427 216.145 L 249.942 184.029 L 265.05 184.029 L 267.311 216.145 L 256.982 216.145 L 256.776 211.058 L 248.709 211.058 L 248.709 211.058 Z  M 251.895 202.888 L 256.006 202.888 L 256.006 193.895 L 255.492 193.895 L 251.895 202.888 L 251.895 202.888 Z  M 235.759 213.679 L 234.783 215.94 L 213.714 213.679 L 235.759 213.679 L 235.759 213.679 Z  M 237.866 208.694 L 236.89 210.955 L 215.821 208.694 L 237.866 208.694 L 237.866 208.694 Z  M 239.921 203.761 L 238.996 206.022 L 217.928 203.761 L 239.921 203.761 L 239.921 203.761 Z  M 242.028 198.828 L 241.052 201.089 L 220.035 198.828 L 242.028 198.828 L 242.028 198.828 Z  M 244.084 193.895 L 243.159 196.156 L 222.142 193.895 L 244.084 193.895 L 244.084 193.895 Z  M 248.246 184.029 L 247.321 186.238 L 226.355 184.029 L 248.246 184.029 L 248.246 184.029 Z  M 246.139 188.962 L 245.214 191.171 L 224.248 188.962 L 246.139 188.962 L 246.139 188.962 Z  M 226.355 184.029 L 247.321 186.238 L 248.246 184.029 L 226.355 184.029 L 226.355 184.029 Z  M 280.312 198.828 L 280.157 199.856 L 280.157 199.856 Q 280.055 200.267 279.952 200.986 L 279.952 200.986 L 259.757 198.828 L 280.312 198.828 L 280.312 198.828 Z  M 259.192 203.761 L 279.592 203.761 L 279.592 203.761 Q 279.438 204.943 279.438 205.919 L 279.438 205.919 L 259.192 203.761 L 259.192 203.761 Z  M 260.99 193.895 L 281.545 193.895 L 280.928 196.002 L 260.99 193.895 L 260.99 193.895 Z  M 259.86 208.694 L 279.489 208.694 L 279.489 208.694 Q 279.695 210.133 279.849 210.853 L 279.849 210.853 L 259.86 208.694 L 259.86 208.694 Z  M 263.405 188.962 L 283.652 188.962 L 283.652 188.962 Q 282.932 190.298 282.624 191.017 L 282.624 191.017 L 263.405 188.962 L 263.405 188.962 Z  M 264.793 213.679 L 281.031 213.679 L 281.031 213.679 Q 281.699 214.861 282.573 215.58 L 282.573 215.58 L 264.793 213.679 L 264.793 213.679 Z  M 270.497 184.029 L 288.533 184.029 L 288.533 184.029 Q 287.043 184.954 286.221 185.724 L 286.221 185.724 L 270.497 184.029 L 270.497 184.029 Z  M 293.055 216.916 L 293.055 216.916 L 293.055 216.916 Q 286.581 216.916 283.78 214.398 L 283.78 214.398 L 283.78 214.398 Q 280.98 211.88 280.98 206.639 L 280.98 206.639 L 280.98 206.639 Q 280.98 204.429 281.699 200.113 L 281.699 200.113 L 281.699 200.113 Q 283.241 191.274 287.018 187.266 L 287.018 187.266 L 287.018 187.266 Q 290.794 183.258 298.965 183.258 L 298.965 183.258 L 298.965 183.258 Q 300.866 183.258 303.307 183.643 L 303.307 183.643 L 303.307 183.643 Q 305.748 184.029 306.879 184.594 L 306.879 184.594 L 304.001 192.456 L 304.001 192.456 Q 300.969 191.737 298.323 191.737 L 298.323 191.737 L 298.323 191.737 Q 295.676 191.737 294.546 192.251 L 294.546 192.251 L 294.546 192.251 Q 293.415 192.764 293.158 194.306 L 293.158 194.306 L 290.794 207.769 L 290.794 207.769 Q 292.644 208.18 294.597 208.18 L 294.597 208.18 L 294.597 208.18 Q 298.759 208.18 302.202 206.947 L 302.202 206.947 L 301.38 215.58 L 301.38 215.58 Q 298.091 216.916 293.055 216.916 Z  M 344.699 184.029 L 343.209 192.251 L 336.118 192.251 L 331.955 216.145 L 322.192 216.145 L 326.354 192.251 L 319.314 192.251 L 320.804 184.029 L 344.699 184.029 L 344.699 184.029 Z  M 321.01 213.679 L 320.599 215.991 L 298.811 213.679 L 321.01 213.679 L 321.01 213.679 Z  M 322.757 203.761 L 322.346 206.074 L 300.558 203.761 L 322.757 203.761 L 322.757 203.761 Z  M 323.631 198.828 L 323.22 201.14 L 301.432 198.828 L 323.631 198.828 L 323.631 198.828 Z  M 324.504 193.895 L 324.093 196.207 L 302.305 193.895 L 324.504 193.895 L 324.504 193.895 Z  M 321.884 208.694 L 321.472 211.007 L 299.684 208.694 L 321.884 208.694 L 321.884 208.694 Z  M 318.286 188.962 L 317.927 191.274 L 296.139 188.962 L 318.286 188.962 L 318.286 188.962 Z  M 319.16 184.029 L 318.749 186.341 L 297.012 184.029 L 319.16 184.029 L 319.16 184.029 Z  M 363.096 208.129 L 367.155 208.129 L 367.155 208.129 Q 369.16 208.129 370.136 207.641 L 370.136 207.641 L 370.136 207.641 Q 371.112 207.153 371.421 205.406 L 371.421 205.406 L 373.784 192.045 L 369.673 192.045 L 369.673 192.045 Q 367.721 192.045 366.744 192.533 L 366.744 192.533 L 366.744 192.533 Q 365.768 193.021 365.46 194.768 L 365.46 194.768 L 363.096 208.129 L 363.096 208.129 Z  M 371.369 183.258 L 371.369 183.258 L 371.369 183.258 Q 377.895 183.258 380.67 185.801 L 380.67 185.801 L 380.67 185.801 Q 383.445 188.345 383.445 193.638 L 383.445 193.638 L 383.445 193.638 Q 383.445 198.931 381.775 204.712 L 381.775 204.712 L 381.775 204.712 Q 380.105 210.493 376.482 213.705 L 376.482 213.705 L 376.482 213.705 Q 372.859 216.916 365.896 216.916 L 365.896 216.916 L 365.896 216.916 Q 358.934 216.916 356.159 214.373 L 356.159 214.373 L 356.159 214.373 Q 353.384 211.829 353.384 206.536 L 353.384 206.536 L 353.384 206.536 Q 353.384 204.018 354.103 199.881 L 354.103 199.881 L 354.103 199.881 Q 354.823 195.745 356.004 192.739 L 356.004 192.739 L 356.004 192.739 Q 357.186 189.733 359.19 187.523 L 359.19 187.523 L 359.19 187.523 Q 363.044 183.258 371.369 183.258 Z  M 352.767 198.828 L 352.613 199.856 L 352.613 199.856 Q 352.51 200.267 352.407 200.986 L 352.407 200.986 L 332.212 198.828 L 352.767 198.828 L 352.767 198.828 Z  M 331.647 203.761 L 352.048 203.761 L 352.048 203.761 Q 351.894 204.943 351.894 205.919 L 351.894 205.919 L 331.647 203.761 L 331.647 203.761 Z  M 333.446 193.895 L 354 193.895 L 353.384 196.002 L 333.446 193.895 L 333.446 193.895 Z  M 332.315 208.694 L 351.945 208.694 L 351.945 208.694 Q 352.15 210.133 352.305 210.853 L 352.305 210.853 L 332.315 208.694 L 332.315 208.694 Z  M 335.861 188.962 L 356.107 188.962 L 356.107 188.962 Q 355.388 190.298 355.08 191.017 L 355.08 191.017 L 335.861 188.962 L 335.861 188.962 Z  M 337.248 213.679 L 353.487 213.679 L 353.487 213.679 Q 354.155 214.861 355.028 215.58 L 355.028 215.58 L 337.248 213.679 L 337.248 213.679 Z  M 342.952 184.029 L 360.989 184.029 L 360.989 184.029 Q 359.499 184.954 358.677 185.724 L 358.677 185.724 L 342.952 184.029 L 342.952 184.029 Z  M 400.762 184.029 L 416.179 184.029 L 416.179 184.029 Q 424.966 184.029 424.966 191.891 L 424.966 191.891 L 424.966 191.891 Q 424.966 195.128 423.989 198.057 L 423.989 198.057 L 423.989 198.057 Q 422.191 203.607 418.337 205.457 L 418.337 205.457 L 421.728 216.145 L 410.988 216.145 L 408.625 206.587 L 406.518 206.587 L 404.873 216.145 L 395.11 216.145 L 400.762 184.029 L 400.762 184.029 Z  M 407.905 198.674 L 410.166 198.674 L 410.166 198.674 Q 411.913 198.674 412.813 198.288 L 412.813 198.288 L 412.813 198.288 Q 413.712 197.903 414.046 196.079 L 414.046 196.079 L 414.046 196.079 Q 414.38 194.255 414.38 193.844 L 414.38 193.844 L 414.38 193.844 Q 414.38 192.816 413.584 192.533 L 413.584 192.533 L 413.584 192.533 Q 412.787 192.251 410.988 192.251 L 410.988 192.251 L 409.036 192.251 L 407.905 198.674 L 407.905 198.674 Z  M 393.979 213.679 L 393.568 215.991 L 371.78 213.679 L 393.979 213.679 L 393.979 213.679 Z  M 395.727 203.761 L 395.315 206.074 L 373.527 203.761 L 395.727 203.761 L 395.727 203.761 Z  M 397.422 193.895 L 397.011 196.207 L 375.275 193.895 L 397.422 193.895 L 397.422 193.895 Z  M 398.296 188.962 L 397.885 191.274 L 376.148 188.962 L 398.296 188.962 L 398.296 188.962 Z  M 394.853 208.694 L 394.442 211.007 L 372.654 208.694 L 394.853 208.694 L 394.853 208.694 Z  M 399.169 184.029 L 398.758 186.341 L 377.022 184.029 L 399.169 184.029 L 399.169 184.029 Z  M 396.549 198.828 L 396.138 201.14 L 374.401 198.828 L 396.549 198.828 L 396.549 198.828 Z  M 437.864 213.679 L 437.453 215.991 L 415.716 213.679 L 437.864 213.679 L 437.864 213.679 Z  M 438.686 208.694 L 438.326 211.007 L 416.59 208.694 L 438.686 208.694 L 438.686 208.694 Z  M 438.224 203.761 L 438.686 206.074 L 416.898 203.761 L 438.224 203.761 L 438.224 203.761 Z  M 437.247 198.828 L 437.71 201.14 L 415.922 198.828 L 437.247 198.828 L 437.247 198.828 Z  M 414.02 188.962 L 435.294 188.962 L 435.757 191.274 L 414.02 188.962 L 414.02 188.962 Z  M 414.997 193.895 L 436.271 193.895 L 436.733 196.207 L 414.997 193.895 L 414.997 193.895 Z  M 434.37 184.029 L 434.832 186.341 L 413.095 184.029 L 434.37 184.029 L 434.37 184.029 Z  M 435.911 184.029 L 446.702 184.029 L 447.37 195.334 L 447.73 195.334 L 452.458 184.029 L 463.249 184.029 L 450.299 207.41 L 448.809 216.145 L 439.046 216.145 L 440.536 207.41 L 435.911 184.029 L 435.911 184.029 Z  M 160.066 198.828 L 159.912 199.856 L 159.912 199.856 Q 159.809 200.267 159.706 200.986 L 159.706 200.986 L 139.511 198.828 L 160.066 198.828 L 160.066 198.828 Z  M 138.946 203.761 L 159.347 203.761 L 159.347 203.761 Q 159.193 204.943 159.193 205.919 L 159.193 205.919 L 138.946 203.761 L 138.946 203.761 Z  M 140.745 193.895 L 161.299 193.895 L 160.683 196.002 L 140.745 193.895 L 140.745 193.895 Z  M 139.614 208.694 L 159.244 208.694 L 159.244 208.694 Q 159.45 210.133 159.604 210.853 L 159.604 210.853 L 139.614 208.694 L 139.614 208.694 Z  M 143.16 188.962 L 163.406 188.962 L 163.406 188.962 Q 162.687 190.298 162.379 191.017 L 162.379 191.017 L 143.16 188.962 L 143.16 188.962 Z  M 144.547 213.679 L 160.786 213.679 L 160.786 213.679 Q 161.454 214.861 162.327 215.58 L 162.327 215.58 L 144.547 213.679 L 144.547 213.679 Z  M 150.251 184.029 L 168.288 184.029 L 168.288 184.029 Q 166.798 184.954 165.976 185.724 L 165.976 185.724 L 150.251 184.029 L 150.251 184.029 Z  M 172.81 216.916 L 172.81 216.916 L 172.81 216.916 Q 166.335 216.916 163.535 214.398 L 163.535 214.398 L 163.535 214.398 Q 160.734 211.88 160.734 206.639 L 160.734 206.639 L 160.734 206.639 Q 160.734 204.429 161.454 200.113 L 161.454 200.113 L 161.454 200.113 Q 162.995 191.274 166.772 187.266 L 166.772 187.266 L 166.772 187.266 Q 170.549 183.258 178.72 183.258 L 178.72 183.258 L 178.72 183.258 Q 180.621 183.258 183.062 183.643 L 183.062 183.643 L 183.062 183.643 Q 185.503 184.029 186.633 184.594 L 186.633 184.594 L 183.756 192.456 L 183.756 192.456 Q 180.724 191.737 178.077 191.737 L 178.077 191.737 L 178.077 191.737 Q 175.431 191.737 174.3 192.251 L 174.3 192.251 L 174.3 192.251 Q 173.17 192.764 172.913 194.306 L 172.913 194.306 L 170.549 207.769 L 170.549 207.769 Q 172.399 208.18 174.352 208.18 L 174.352 208.18 L 174.352 208.18 Q 178.514 208.18 181.957 206.947 L 181.957 206.947 L 181.135 215.58 L 181.135 215.58 Q 177.846 216.916 172.81 216.916 Z " fill="rgb(255,68,0)"/><path d=" M 92.751 208.386 L 92.751 208.386 L 86.379 208.386 L 85.043 216.145 L 75.279 216.145 L 80.932 184.029 L 96.348 184.029 L 96.348 184.029 Q 105.084 184.029 105.084 192.148 L 105.084 192.148 L 105.084 192.148 Q 105.084 196.002 104.005 199.111 L 104.005 199.111 L 104.005 199.111 Q 102.926 202.22 101.615 204.044 L 101.615 204.044 L 101.615 204.044 Q 100.305 205.868 98.018 207.127 L 98.018 207.127 L 98.018 207.127 Q 95.731 208.386 92.751 208.386 Z  M 87.818 200.164 L 90.079 200.164 L 90.079 200.164 Q 91.826 200.164 92.725 199.779 L 92.725 199.779 L 92.725 199.779 Q 93.625 199.393 93.881 198.006 L 93.881 198.006 L 93.881 198.006 Q 94.55 194.203 94.55 193.844 L 94.55 193.844 L 94.55 193.844 Q 94.55 192.867 93.779 192.559 L 93.779 192.559 L 93.779 192.559 Q 93.008 192.251 91.466 192.251 L 91.466 192.251 L 89.205 192.251 L 87.818 200.164 L 87.818 200.164 Z  M 74.149 213.679 L 73.738 215.991 L 51.95 213.679 L 74.149 213.679 L 74.149 213.679 Z  M 75.896 203.761 L 75.485 206.074 L 53.697 203.761 L 75.896 203.761 L 75.896 203.761 Z  M 77.592 193.895 L 77.181 196.207 L 55.444 193.895 L 77.592 193.895 L 77.592 193.895 Z  M 78.465 188.962 L 78.054 191.274 L 56.318 188.962 L 78.465 188.962 L 78.465 188.962 Z  M 75.022 208.694 L 74.611 211.007 L 52.823 208.694 L 75.022 208.694 L 75.022 208.694 Z  M 79.339 184.029 L 78.928 186.341 L 57.191 184.029 L 79.339 184.029 L 79.339 184.029 Z  M 76.718 198.828 L 76.307 201.14 L 54.571 198.828 L 76.718 198.828 L 76.718 198.828 Z " fill="rgb(255,68,0)"/></g><g><path d=" M 122.755 197.953 L 122.601 198.981 L 122.601 198.981 Q 122.498 199.392 122.395 200.111 L 122.395 200.111 L 116.449 199.476 L 102.2 197.953 L 122.755 197.953 Z  M 103.635 202.886 L 124.036 202.886 L 124.036 202.886 Q 123.882 204.068 123.882 205.044 L 123.882 205.044 L 103.635 202.886 Z  M 101.434 193.02 L 121.988 193.02 L 121.372 195.127 L 101.434 193.02 Z  M 102.303 207.819 L 111.25 207.819 L 121.933 207.819 L 121.933 207.819 Q 121.846 209.258 122 209.978 L 122.293 209.978 L 102.303 207.819 Z  M 102.849 188.087 L 123.095 188.087 L 123.095 188.087 Q 122.376 189.423 122.068 190.142 L 122.068 190.142 L 102.849 188.087 Z  M 116.94 214.162 L 104.236 212.804 L 120.475 212.804 L 120.475 212.804 Q 120.222 213.986 121.095 214.705 L 121.095 214.705 L 116.94 214.162 Z  M 107.94 183.154 L 125.977 183.154 L 125.977 183.154 Q 124.487 184.079 123.665 184.849 L 123.665 184.849 L 107.94 183.154 Z " fill="rgb(255,68,0)"/><g><path d=" M 106.653 172.187 L 156.903 172.187 L 156.903 222.437 L 106.653 222.437 L 106.653 172.187 Z " fill="none"/></g></g><path d=" M 138.87 180.691 C 132.555 178.999 126.017 182.773 124.326 189.086 C 122.58 195.6 127.123 200.849 126.225 204.201 L 126.027 204.941 C 125.816 205.729 126.218 206.516 127.004 206.726 L 135.884 209.105 C 136.26 209.207 136.662 209.154 136.999 208.959 C 137.336 208.763 137.582 208.441 137.681 208.064 L 137.88 207.324 C 138.778 203.972 145.274 201.681 147.019 195.167 C 148.914 188.908 145.185 182.383 138.87 180.691 Z  M 137.862 184.452 C 139.243 184.822 140.518 185.576 141.495 186.681 L 141.124 186.582 C 135.78 185.168 130.296 188.334 128.85 193.67 C 128.545 194.011 128.492 194.208 128.586 194.656 C 128.119 193.258 127.9 191.539 128.324 189.959 C 129.443 185.809 133.708 183.346 137.862 184.452 L 137.862 184.452 Z  M 126.621 209.134 C 126.245 209.033 125.844 209.085 125.507 209.28 C 125.17 209.474 124.924 209.795 124.824 210.171 L 124.031 213.131 C 123.767 214.118 124.249 214.844 125.036 215.055 L 126.145 215.352 C 126.484 216.614 127.438 217.614 128.873 217.999 C 130.284 218.377 131.633 217.962 132.559 217.07 L 133.917 217.434 C 134.702 217.644 135.475 217.041 135.686 216.254 L 136.479 213.294 C 136.689 212.509 136.286 211.724 135.501 211.513 L 126.621 209.134 Z " fill="rgb(255,68,0)"/></g></g></svg>